# xmcd CD database file
#
# Track frame offsets:
#	150
#	17758
#	32877
#	49184
#	66929
#	82041
#	98518
#	116081
#	132284
#	147881
#	161766
#	175201
#	191179
#	208583
#	226198
#
# Disc length: 3237 seconds
#
# Revision: 3
# Processed by: cddbd v1.5.1PL0 Copyright (c) Steve Scherf et al.
# Submitted via: ACXtractor (MTCDDB.DLL V2003.12.21)
#
DISCID=d30ca30f
DTITLE=Bruno e Marrone - Meu presente e voce
DYEAR=2005
DGENRE=Country
TTITLE0=Choram as rosas
TTITLE1=Cuida do nosso amor
TTITLE2=Quer casar comigo?
TTITLE3=Por um gole a mais
TTITLE4=Faz mais, Faz
TTITLE5=Porque choras?
TTITLE6=Por te amar Demais
TTITLE7=Vai sofrer pra la
TTITLE8=Que percar que nada
TTITLE9=Nao tem outro jeito
TTITLE10=A Culpa e sua
TTITLE11=Raridade
TTITLE12=Meu presente e voce
TTITLE13=Uma grande mentira
TTITLE14=Se nao for por amor
EXTD=YEAR: 2005 ID3G:   2
EXTT0=
EXTT1=
EXTT2=
EXTT3=
EXTT4=
EXTT5=
EXTT6=
EXTT7=
EXTT8=
EXTT9=
EXTT10=
EXTT11=
EXTT12=
EXTT13=
EXTT14=
PLAYORDER=
